<svg width="428" height="374" viewBox="0 0 428 374" fill="none" xmlns="http://www.w3.org/2000/svg">
<path fill-rule="evenodd" clip-rule="evenodd" d="M415.586 373.5C424.823 373.5 430.597 363.5 425.978 355.5L224.194 6C219.575 -2 208.028 -2 203.41 6L1.6256 355.5C-2.9932 363.5 2.7803 373.5 12.0179 373.5H415.586ZM355.031 338.75C364.269 338.75 370.042 328.75 365.423 320.75L224.694 77C220.075 69 208.528 69 203.91 77L63.1804 320.75C58.5616 328.75 64.3351 338.75 73.5727 338.75H355.031Z" fill="#C4C4C4"/>
<path fill-rule="evenodd" clip-rule="evenodd" d="M382.937 370.88C391.703 370.88 396.894 361.07 391.964 353.822L229.433 114.868C224.806 108.066 214.864 107.83 209.92 114.404L35.4444 346.415C30.2823 353.28 33.7923 363.186 42.1247 365.269L51.8746 367.707C56.5434 368.874 61.4579 367.139 64.3592 363.3L208.493 172.551C213.294 166.196 222.84 166.196 227.641 172.551L374.227 366.544C376.29 369.275 379.514 370.88 382.937 370.88V370.88Z" fill="#C4C4C4"/>
<path fill-rule="evenodd" clip-rule="evenodd" d="M81.4853 356.027L205.232 199.35C209.909 193.428 218.826 193.241 223.747 198.962L348.182 343.633C354.98 351.538 349.159 363.754 338.738 363.454L334.718 363.338C331.178 363.235 327.864 361.575 325.664 358.801L239.206 249.825C234.401 243.77 225.208 243.77 220.404 249.825L138.66 352.859C136.308 355.824 132.695 357.505 128.913 357.396L81.4853 356.027ZM81.4853 356.027L76.5822 362.235C75.6183 363.455 74.0311 364.001 72.5204 363.632V363.632C67.888 362.501 68.8114 355.661 73.578 355.799L81.4853 356.027Z" fill="#C4C4C4"/>
<path fill-rule="evenodd" clip-rule="evenodd" d="M173.384 362.334C163.818 361.718 158.799 350.688 164.62 343.072L219.569 271.176C224.268 265.028 233.471 264.869 238.38 270.85L310.245 358.424C312.449 361.11 312.533 364.955 310.448 367.736V367.736C308.921 369.772 306.469 370.901 303.928 370.738L303.1 370.684C300.538 370.52 298.166 369.278 296.571 367.267L256.72 317.038C251.916 310.982 242.723 310.982 237.919 317.038L204.496 359.165C202.051 362.247 198.251 363.935 194.325 363.682L173.384 362.334Z" fill="#C4C4C4"/>
</svg>
